<svg width="114" height="50" viewBox="0 0 114 50" fill="none" xmlns="http://www.w3.org/2000/svg">
<path d="M25.1913 48.5573C25.2766 48.7045 25.3212 48.8715 25.3206 49.0415C25.32 49.2114 25.2743 49.3781 25.188 49.5247C25.1017 49.6713 24.978 49.7924 24.8294 49.8759C24.6808 49.9593 24.5128 50.002 24.3423 49.9996H0.974108C0.802878 50.0048 0.633458 49.9635 0.48395 49.8801C0.334441 49.7968 0.21046 49.6745 0.125254 49.5264C0.0400482 49.3783 -0.00318195 49.2099 0.00018241 49.0392C0.00354677 48.8686 0.0533792 48.702 0.144356 48.5573L11.8381 28.3849C11.9235 28.2414 12.0449 28.1226 12.1904 28.04C12.3359 27.9575 12.5004 27.9141 12.6678 27.9141C12.8352 27.9141 12.9998 27.9575 13.1453 28.04C13.2907 28.1226 13.4122 28.2414 13.4976 28.3849L25.1913 48.5573Z" fill="#F5F5F5"/>
<path d="M53.5764 26.4428C53.6611 26.589 53.7057 26.7548 53.7057 26.9236C53.7057 27.0923 53.6611 27.2581 53.5764 27.4043L41.3424 48.5575C41.2583 48.7054 41.1362 48.8285 40.9888 48.9141C40.8413 48.9998 40.6737 49.0449 40.503 49.0449C40.3323 49.0449 40.1647 48.9998 40.0172 48.9141C39.8698 48.8285 39.7477 48.7054 39.6636 48.5575L12.3782 1.44362C12.2938 1.29788 12.2492 1.1326 12.249 0.96431C12.2487 0.796019 12.2928 0.630609 12.3768 0.484611C12.4608 0.338613 12.5818 0.217143 12.7276 0.13234C12.8735 0.0475368 13.0391 0.00237208 13.208 0.00135981H37.7146C37.8927 -0.00808799 38.07 0.0318377 38.2267 0.116704C38.3833 0.20157 38.5134 0.328054 38.6023 0.482113L53.5764 26.4428Z" fill="#F5F5F5"/>
<path d="M82.7914 0.96346V49.0388C82.7914 49.2938 82.6898 49.5384 82.5088 49.7187C82.3279 49.899 82.0825 50.0003 81.8266 50.0003H60.6004C60.3445 50.0003 60.0991 49.899 59.9181 49.7187C59.7372 49.5384 59.6355 49.2938 59.6355 49.0388V0.96346C59.6355 0.708453 59.7372 0.46389 59.9181 0.283572C60.0991 0.103254 60.3445 0.00195313 60.6004 0.00195313L81.8266 0.00195312C82.0809 0.00687618 82.3235 0.109758 82.5034 0.289019C82.6832 0.468281 82.7865 0.709994 82.7914 0.96346Z" fill="#F5F5F5"/>
<path d="M113.647 11.54C113.647 14.6001 112.427 17.5349 110.256 19.6987C108.084 21.8625 105.139 23.0781 102.069 23.0781H91.4749C91.219 23.0781 90.9736 22.9768 90.7927 22.7965C90.6117 22.6162 90.5101 22.3716 90.5101 22.1166V11.54C90.5101 8.47995 91.7299 5.54519 93.9012 3.38138C96.0725 1.21757 99.0174 0.00195313 102.088 0.00195312C105.159 0.00195313 108.104 1.21757 110.275 3.38138C112.446 5.54519 113.666 8.47995 113.666 11.54H113.647Z" fill="#F5F5F5"/>
</svg>
