<svg width="189" height="30" viewBox="0 0 189 30" fill="none" xmlns="http://www.w3.org/2000/svg">
<path d="M94.2643 5.09157L89.4438 11.1452H88.8226L84.2206 5.04571V15.9262H80.7692V0.356445H84.7614L89.3633 6.34128L93.9652 0.356445H97.7963V15.9262H94.3449L94.2643 5.09157Z" fill="#373F45"/>
<path d="M104.285 2.00754C104.285 2.49102 104.092 2.9547 103.749 3.29657C103.406 3.63844 102.941 3.8305 102.456 3.8305C101.971 3.8305 101.505 3.63844 101.162 3.29657C100.819 2.9547 100.626 2.49102 100.626 2.00754C100.626 1.52406 100.819 1.06038 101.162 0.718505C101.505 0.376632 101.971 0.18457 102.456 0.18457C102.941 0.18457 103.406 0.376632 103.749 0.718505C104.092 1.06038 104.285 1.52406 104.285 2.00754ZM100.834 4.89677V15.9034H104.055V4.89677H100.834Z" fill="#373F45"/>
<path d="M114.731 15.903V10.1016C114.731 8.40472 113.995 7.54483 112.43 7.54483C112.087 7.55042 111.749 7.62511 111.436 7.76441C111.123 7.90371 110.841 8.10474 110.608 8.35538C110.374 8.60603 110.195 8.90112 110.079 9.22289C109.963 9.54465 109.914 9.88644 109.934 10.2277V15.903H106.782V4.9193H109.681L109.796 6.31805C110.204 5.76568 110.744 5.32336 111.366 5.0311C111.989 4.73884 112.675 4.60584 113.362 4.64413C115.847 4.64413 117.964 5.79065 117.964 10.0786V15.903H114.731Z" fill="#373F45"/>
<path d="M123.763 0.333008V6.27198C124.162 5.77369 124.673 5.37529 125.254 5.10855C125.835 4.84181 126.471 4.71411 127.111 4.73565C129.699 4.73565 131.505 6.08854 131.505 10.0096V15.9028H128.296V10.0326C128.296 8.49623 127.467 7.64781 126.19 7.64781C125.848 7.64452 125.508 7.71321 125.194 7.84942C124.88 7.98563 124.598 8.18629 124.366 8.43833C124.135 8.69037 123.96 8.98813 123.852 9.3122C123.744 9.63628 123.706 9.9794 123.74 10.3192V15.8798H120.53V0.333008H123.763Z" fill="#373F45"/>
<path d="M141.123 11.4657V15.8684H137.672V0.333008H144.966C148.97 0.333008 150.949 2.91268 150.949 5.91656C150.949 8.92044 148.981 11.4657 144.966 11.4657H141.123ZM141.123 8.27839H144.966C145.285 8.30713 145.607 8.26914 145.91 8.16684C146.214 8.06455 146.493 7.9002 146.729 7.68434C146.965 7.46848 147.153 7.20585 147.281 6.91328C147.41 6.62072 147.475 6.30466 147.474 5.98535C147.485 5.66031 147.427 5.33663 147.303 5.0358C147.179 4.73496 146.992 4.46386 146.755 4.24049C146.518 4.01711 146.235 3.84658 145.927 3.74021C145.619 3.63384 145.291 3.59406 144.966 3.62352H141.089L141.123 8.27839Z" fill="#373F45"/>
<path d="M155.942 0.333008V6.27198C156.34 5.773 156.851 5.37411 157.432 5.1073C158.014 4.8405 158.65 4.71321 159.29 4.73565C161.878 4.73565 163.684 6.08854 163.684 10.0096V15.9028H160.463V10.0326C160.463 8.49623 159.646 7.64781 158.369 7.64781C158.026 7.64452 157.687 7.71321 157.373 7.84942C157.059 7.98563 156.777 8.18629 156.545 8.43833C156.314 8.69037 156.139 8.98813 156.031 9.3122C155.923 9.63628 155.885 9.9794 155.919 10.3192V15.8798H152.697V0.333008H155.942Z" fill="#373F45"/>
<path d="M174.66 6.18072L174.775 4.91955H177.778V15.9032H174.879L174.706 14.5274C174.301 15.0367 173.785 15.447 173.197 15.7272C172.609 16.0074 171.964 16.1499 171.312 16.144C170.542 16.2024 169.768 16.0941 169.043 15.8267C168.319 15.5593 167.661 15.1389 167.114 14.5945C166.568 14.0501 166.146 13.3944 165.878 12.6724C165.61 11.9504 165.501 11.1791 165.56 10.4114C165.513 9.64635 165.629 8.88008 165.902 8.16331C166.174 7.44654 166.596 6.79562 167.14 6.25365C167.684 5.71168 168.337 5.29101 169.056 5.01951C169.775 4.74802 170.544 4.63187 171.312 4.67878C171.953 4.62104 172.597 4.72894 173.184 4.99205C173.77 5.25515 174.279 5.66456 174.66 6.18072ZM171.738 7.49922C171.35 7.48098 170.963 7.54401 170.602 7.68422C170.24 7.82443 169.912 8.0387 169.639 8.31318C169.365 8.58766 169.153 8.91623 169.015 9.27766C168.877 9.63909 168.817 10.0253 168.839 10.4114C168.819 10.796 168.88 11.1805 169.019 11.54C169.157 11.8995 169.37 12.226 169.644 12.4983C169.917 12.7706 170.244 12.9828 170.605 13.121C170.966 13.2592 171.352 13.3204 171.738 13.3006C172.113 13.3128 172.487 13.2504 172.838 13.117C173.189 12.9836 173.51 12.7819 173.782 12.5237C174.054 12.2654 174.272 11.9558 174.423 11.6128C174.573 11.2698 174.654 10.9004 174.66 10.526C174.687 10.1312 174.632 9.73505 174.496 9.36306C174.361 8.99108 174.148 8.65154 173.873 8.36635C173.598 8.08115 173.265 7.85664 172.898 7.70728C172.53 7.55793 172.135 7.48705 171.738 7.49922ZM175.465 0.000976562H171.715L170.058 3.11951V3.26856H172.877L175.465 0.138559V0.000976562Z" fill="#373F45"/>
<path d="M184.876 1.91504V4.97625H187.66V7.64764H184.853V11.7866C184.853 12.9331 185.497 13.2541 186.107 13.2541C186.565 13.2521 187.018 13.1626 187.442 12.9904L188.178 15.6618C187.444 15.9523 186.666 16.1152 185.877 16.1434C183.496 16.258 181.689 15.2147 181.689 11.7866V7.64764H179.722V4.97625H181.689V2.29339L184.876 1.91504Z" fill="#373F45"/>
<path d="M85.7623 29.6845V25.7175C85.7833 25.4405 85.7467 25.1622 85.6547 24.8999C85.5628 24.6377 85.4175 24.3972 85.2279 24.1935C85.0384 23.9898 84.8087 23.8273 84.5532 23.7162C84.2977 23.605 84.022 23.5477 83.7432 23.5477C83.4645 23.5477 83.1887 23.605 82.9332 23.7162C82.6777 23.8273 82.448 23.9898 82.2585 24.1935C82.0689 24.3972 81.9236 24.6377 81.8317 24.8999C81.7397 25.1622 81.7031 25.4405 81.7241 25.7175V29.6845H80.7922V22.8054H81.6896V23.8716C81.9025 23.5024 82.2145 23.1996 82.5904 22.9971C82.9663 22.7946 83.3914 22.7004 83.818 22.7251C84.3447 22.6795 84.8719 22.8074 85.3187 23.089C85.7654 23.3707 86.1072 23.7906 86.2915 24.2844C86.4942 23.8018 86.8393 23.3921 87.2811 23.1095C87.7229 22.8269 88.2404 22.6849 88.7651 22.7022C89.1593 22.6811 89.5535 22.7445 89.921 22.8882C90.2886 23.0318 90.621 23.2523 90.8957 23.5348C91.1705 23.8173 91.3813 24.1553 91.5139 24.5259C91.6464 24.8965 91.6977 25.2911 91.6643 25.6832V29.6845H90.7324V25.6832C90.7549 25.4121 90.7202 25.1393 90.6306 24.8824C90.541 24.6255 90.3984 24.3901 90.212 24.1914C90.0256 23.9927 89.7996 23.8351 89.5484 23.7287C89.2972 23.6223 89.0264 23.5694 88.7535 23.5736C88.4757 23.5714 88.2004 23.6263 87.9447 23.7348C87.689 23.8433 87.4585 24.0031 87.2675 24.2042C87.0765 24.4054 86.9291 24.6435 86.8344 24.9038C86.7397 25.1642 86.6998 25.4412 86.7172 25.7175V29.6845H85.7623Z" fill="#373F45"/>
<path d="M103.158 26.2676C103.185 26.7475 103.114 27.2279 102.949 27.6794C102.783 28.131 102.527 28.5441 102.196 28.8935C101.865 29.243 101.465 29.5213 101.022 29.7116C100.579 29.9018 100.102 30 99.6198 30C99.1375 30 98.6602 29.9018 98.2173 29.7116C97.7744 29.5213 97.3751 29.243 97.0438 28.8935C96.7126 28.5441 96.4565 28.131 96.2911 27.6794C96.1258 27.2279 96.0546 26.7475 96.0821 26.2676C96.0546 25.7877 96.1258 25.3072 96.2911 24.8557C96.4565 24.4042 96.7126 23.991 97.0438 23.6416C97.3751 23.2922 97.7744 23.0138 98.2173 22.8235C98.6602 22.6333 99.1375 22.5352 99.6198 22.5352C100.102 22.5352 100.579 22.6333 101.022 22.8235C101.465 23.0138 101.865 23.2922 102.196 23.6416C102.527 23.991 102.783 24.4042 102.949 24.8557C103.114 25.3072 103.185 25.7877 103.158 26.2676ZM97.014 26.2676C96.9903 26.6231 97.0401 26.9797 97.1603 27.3153C97.2805 27.6509 97.4686 27.9583 97.7129 28.2184C97.9572 28.4786 98.2525 28.686 98.5805 28.8278C98.9085 28.9696 99.2623 29.0428 99.6198 29.0428C99.9774 29.0428 100.331 28.9696 100.659 28.8278C100.987 28.686 101.282 28.4786 101.527 28.2184C101.771 27.9583 101.959 27.6509 102.079 27.3153C102.2 26.9797 102.249 26.6231 102.226 26.2676C102.249 25.912 102.2 25.5554 102.079 25.2199C101.959 24.8843 101.771 24.5769 101.527 24.3167C101.282 24.0565 100.987 23.8491 100.659 23.7073C100.331 23.5655 99.9774 23.4923 99.6198 23.4923C99.2623 23.4923 98.9085 23.5655 98.5805 23.7073C98.2525 23.8491 97.9572 24.0565 97.7129 24.3167C97.4686 24.5769 97.2805 24.8843 97.1603 25.2199C97.0401 25.5554 96.9903 25.912 97.014 26.2676Z" fill="#373F45"/>
<path d="M108.622 19.9619V24.1811C108.894 23.7114 109.289 23.325 109.766 23.0642C110.243 22.8034 110.783 22.6781 111.326 22.7021C111.795 22.6812 112.263 22.7598 112.699 22.9326C113.135 23.1054 113.529 23.3685 113.855 23.7045C114.181 24.0405 114.432 24.4418 114.591 24.8817C114.75 25.3216 114.814 25.7901 114.777 26.2563C114.814 26.7225 114.75 27.191 114.591 27.631C114.432 28.0709 114.181 28.4721 113.855 28.8081C113.529 29.1441 113.135 29.4072 112.699 29.58C112.263 29.7528 111.795 29.8314 111.326 29.8105C110.785 29.8472 110.244 29.7311 109.766 29.4756C109.288 29.2201 108.891 28.8355 108.622 28.3659V29.6844H107.69V19.9619H108.622ZM108.622 26.2448C108.605 26.5954 108.66 26.9458 108.785 27.2741C108.91 27.6023 109.101 27.9013 109.348 28.1521C109.594 28.403 109.89 28.6004 110.216 28.7319C110.543 28.8634 110.893 28.9262 111.245 28.9162C111.602 28.942 111.96 28.8908 112.295 28.7661C112.63 28.6414 112.934 28.4461 113.186 28.1936C113.439 27.9411 113.633 27.6373 113.757 27.3029C113.881 26.9686 113.93 26.6116 113.903 26.2563C113.933 25.9058 113.887 25.5529 113.769 25.2215C113.651 24.89 113.463 24.5876 113.218 24.3345C112.973 24.0815 112.676 23.8836 112.348 23.7543C112.019 23.6251 111.667 23.5673 111.314 23.5849C110.96 23.5721 110.608 23.6321 110.278 23.7612C109.948 23.8904 109.649 24.0858 109.398 24.3354C109.148 24.585 108.952 24.8834 108.822 25.2119C108.693 25.5405 108.632 25.8921 108.645 26.2448H108.622Z" fill="#373F45"/>
<path d="M120.472 20.6384C120.451 20.7983 120.372 20.945 120.251 21.0513C120.129 21.1576 119.973 21.2163 119.811 21.2163C119.649 21.2163 119.493 21.1576 119.371 21.0513C119.249 20.945 119.17 20.7983 119.149 20.6384C119.17 20.4785 119.249 20.3318 119.371 20.2255C119.493 20.1192 119.649 20.0605 119.811 20.0605C119.973 20.0605 120.129 20.1192 120.251 20.2255C120.372 20.3318 120.451 20.4785 120.472 20.6384ZM119.322 22.7595V29.6386H120.254V22.7595H119.322Z" fill="#373F45"/>
<path d="M126.259 19.9619V29.6844H125.327V19.9619H126.259Z" fill="#373F45"/>
<path d="M131.839 26.6462C131.88 27.2932 132.177 27.8975 132.664 28.3272C133.152 28.7569 133.79 28.9769 134.439 28.9392C134.866 28.9449 135.29 28.8645 135.686 28.703C136.081 28.5414 136.44 28.302 136.74 27.9991L137.361 28.5609C136.991 28.9632 136.538 29.2826 136.035 29.498C135.531 29.7134 134.987 29.82 134.439 29.8106C133.965 29.8266 133.494 29.7453 133.053 29.5717C132.612 29.398 132.212 29.1357 131.877 28.8012C131.543 28.4667 131.281 28.0671 131.108 27.6273C130.935 27.1875 130.855 26.7169 130.873 26.2449C130.858 25.7778 130.94 25.3126 131.112 24.8779C131.284 24.4432 131.544 24.048 131.874 23.7165C132.205 23.385 132.599 23.124 133.035 22.9496C133.47 22.7752 133.936 22.691 134.405 22.7021C136.452 22.7021 138.098 23.9404 137.856 26.6462H131.839ZM136.947 25.8551C136.949 25.5336 136.883 25.2155 136.753 24.9212C136.623 24.6269 136.433 24.3631 136.194 24.1469C135.955 23.9306 135.674 23.7668 135.367 23.6661C135.061 23.5653 134.737 23.5299 134.416 23.562C133.771 23.5306 133.138 23.7535 132.656 24.1825C132.174 24.6115 131.881 25.2123 131.839 25.8551H136.947Z" fill="#373F45"/>
<path d="M15.0193 28.9503C15.0702 29.038 15.0968 29.1376 15.0964 29.239C15.0961 29.3403 15.0688 29.4397 15.0173 29.5271C14.9659 29.6145 14.8921 29.6867 14.8035 29.7364C14.715 29.7862 14.6148 29.8116 14.5131 29.8102H0.580773C0.478684 29.8133 0.377674 29.7886 0.288536 29.739C0.199397 29.6893 0.125479 29.6164 0.0746778 29.5281C0.0238771 29.4398 -0.00189711 29.3394 0.000108755 29.2376C0.00211462 29.1359 0.0318252 29.0365 0.0860664 28.9503L7.05798 16.9233C7.10891 16.8378 7.18131 16.7669 7.26804 16.7177C7.35478 16.6685 7.45287 16.6426 7.55269 16.6426C7.6525 16.6426 7.75059 16.6685 7.83733 16.7177C7.92407 16.7669 7.99646 16.8378 8.04739 16.9233L15.0193 28.9503Z" fill="#373F45"/>
<path d="M31.9428 15.7655C31.9933 15.8526 32.0199 15.9515 32.0199 16.0521C32.0199 16.1527 31.9933 16.2516 31.9428 16.3387L24.6488 28.9504C24.5986 29.0387 24.5258 29.112 24.4379 29.1631C24.35 29.2142 24.25 29.2411 24.1483 29.2411C24.0465 29.2411 23.9466 29.2142 23.8587 29.1631C23.7708 29.112 23.698 29.0387 23.6478 28.9504L7.38003 0.860701C7.32969 0.773808 7.30311 0.675268 7.30296 0.574932C7.30281 0.474595 7.32908 0.375975 7.37916 0.28893C7.42924 0.201885 7.50137 0.129463 7.58833 0.0789023C7.6753 0.0283419 7.77406 0.00141425 7.87474 0.000810733H22.4858C22.592 -0.00482214 22.6977 0.018982 22.7911 0.0695799C22.8845 0.120178 22.9621 0.195589 23.0151 0.287441L31.9428 15.7655Z" fill="#373F45"/>
<path d="M49.3611 0.574237V29.2372C49.3611 29.3893 49.3005 29.5351 49.1926 29.6426C49.0847 29.7501 48.9384 29.8105 48.7858 29.8105H36.1306C35.978 29.8105 35.8317 29.7501 35.7238 29.6426C35.6159 29.5351 35.5553 29.3893 35.5553 29.2372V0.574237C35.5553 0.422199 35.6159 0.276388 35.7238 0.168881C35.8317 0.0613734 35.978 0.000976563 36.1306 0.000976563L48.7858 0.000976562C48.9375 0.00391174 49.0821 0.0652509 49.1893 0.172128C49.2966 0.279006 49.3581 0.423118 49.3611 0.574237Z" fill="#373F45"/>
<path d="M67.7573 6.8801C67.7573 8.70455 67.03 10.4543 65.7355 11.7444C64.4409 13.0345 62.6851 13.7592 60.8544 13.7592H54.5382C54.3857 13.7592 54.2394 13.6988 54.1315 13.5913C54.0236 13.4838 53.963 13.338 53.963 13.186V6.8801C53.963 5.05564 54.6903 3.30591 55.9848 2.01582C57.2794 0.725739 59.0351 0.000976563 60.8659 0.000976562C62.6966 0.000976563 64.4524 0.725739 65.747 2.01582C67.0415 3.30591 67.7688 5.05564 67.7688 6.8801H67.7573Z" fill="#373F45"/>
</svg>
