<svg width="137" height="60" viewBox="0 0 137 60" fill="none" xmlns="http://www.w3.org/2000/svg">
<path d="M30.2296 58.2685C30.3319 58.4451 30.3854 58.6456 30.3847 58.8495C30.384 59.0534 30.3291 59.2535 30.2256 59.4294C30.122 59.6053 29.9736 59.7506 29.7953 59.8507C29.617 59.9508 29.4153 60.0021 29.2107 59.9992H1.16893C0.963454 60.0054 0.76015 59.9559 0.580739 59.8558C0.401329 59.7558 0.252552 59.6091 0.150305 59.4314C0.0480579 59.2537 -0.00381833 59.0516 0.000218892 58.8468C0.00425612 58.642 0.0640551 58.4421 0.173227 58.2685L14.2057 34.0616C14.3082 33.8894 14.4539 33.7468 14.6285 33.6477C14.8031 33.5487 15.0005 33.4966 15.2014 33.4966C15.4023 33.4966 15.5997 33.5487 15.7743 33.6477C15.9489 33.7468 16.0946 33.8894 16.1971 34.0616L30.2296 58.2685Z" fill="#F5F5F5"/>
<path d="M64.2917 31.7314C64.3933 31.9068 64.4468 32.1057 64.4468 32.3083C64.4468 32.5108 64.3933 32.7098 64.2917 32.8852L49.6108 58.269C49.5099 58.4465 49.3634 58.5942 49.1865 58.697C49.0095 58.7997 48.8084 58.8539 48.6036 58.8539C48.3988 58.8539 48.1976 58.7997 48.0207 58.697C47.8437 58.5942 47.6973 58.4465 47.5963 58.269L14.8539 1.73234C14.7525 1.55745 14.699 1.35912 14.6987 1.15717C14.6984 0.955223 14.7513 0.756731 14.8521 0.581533C14.9529 0.406336 15.0981 0.260571 15.2731 0.158808C15.4481 0.0570441 15.6469 0.00284649 15.8496 0.00163177H45.2575C45.4712 -0.00970559 45.6839 0.0382053 45.8719 0.140044C46.06 0.241883 46.216 0.393665 46.3227 0.578536L64.2917 31.7314Z" fill="#F5F5F5"/>
<path d="M99.3497 1.15576V58.8462C99.3497 59.1522 99.2277 59.4457 99.0106 59.662C98.7934 59.8784 98.4989 60 98.1919 60H72.7204C72.4133 60 72.1189 59.8784 71.9017 59.662C71.6846 59.4457 71.5626 59.1522 71.5626 58.8462V1.15576C71.5626 0.849752 71.6846 0.556277 71.9017 0.339896C72.1189 0.123515 72.4133 0.00195313 72.7204 0.00195313L98.1919 0.00195312C98.4971 0.00786079 98.7881 0.131319 99.004 0.346433C99.2199 0.561546 99.3437 0.851602 99.3497 1.15576Z" fill="#F5F5F5"/>
<path d="M136.376 13.8477C136.376 17.5198 134.912 21.0415 132.307 23.638C129.701 26.2346 126.167 27.6934 122.482 27.6934H109.77C109.463 27.6934 109.168 27.5718 108.951 27.3554C108.734 27.139 108.612 26.8456 108.612 26.5395V13.8477C108.612 10.1755 110.076 6.65384 112.681 4.05727C115.287 1.46069 118.821 0.00195313 122.506 0.00195312C126.19 0.00195313 129.724 1.46069 132.33 4.05727C134.935 6.65384 136.399 10.1755 136.399 13.8477H136.376Z" fill="#F5F5F5"/>
</svg>
